<svg xmlns="http://www.w3.org/2000/svg" xmlns:xlink="http://www.w3.org/1999/xlink" viewBox="0 0 496 547.1"><defs><style>.cls-1,.cls-16,.cls-25,.cls-3,.cls-31{fill:none;}.cls-2{isolation:isolate;}.cls-10,.cls-16,.cls-17,.cls-18,.cls-19,.cls-20,.cls-25,.cls-29,.cls-3,.cls-31,.cls-4,.cls-5,.cls-7,.cls-8{stroke:#000;}.cls-10,.cls-16,.cls-17,.cls-25,.cls-29,.cls-3,.cls-31,.cls-4,.cls-5,.cls-7{stroke-linecap:round;stroke-linejoin:round;}.cls-3{stroke-width:12px;}.cls-14,.cls-29,.cls-4{fill:#cac8c1;}.cls-10,.cls-16,.cls-20,.cls-4,.cls-7,.cls-8{stroke-width:6px;}.cls-15,.cls-5,.cls-6{fill:#60828a;}.cls-5{stroke-width:7px;}.cls-27,.cls-32,.cls-6{opacity:0.24;}.cls-11,.cls-27,.cls-32,.cls-33,.cls-6{mix-blend-mode:multiply;}.cls-17,.cls-27,.cls-34,.cls-7{fill:#ce6248;}.cls-8{fill:#27243a;}.cls-18,.cls-19,.cls-20,.cls-8{stroke-miterlimit:10;}.cls-9{clip-path:url(#clip-path);}.cls-10{fill:#ff7000;}.cls-11{opacity:0.7;}.cls-12{fill:#fbd212;}.cls-13{fill:#f7d613;}.cls-17,.cls-18,.cls-19,.cls-25,.cls-29{stroke-width:4px;}.cls-18{fill:#97c6bc;}.cls-20,.cls-21{fill:#ce1526;}.cls-22{fill:#910f18;}.cls-23{fill:#fff;}.cls-24{clip-path:url(#clip-path-2);}.cls-26{clip-path:url(#clip-path-3);}.cls-28{fill:#070606;}.cls-30{clip-path:url(#clip-path-4);}.cls-31{stroke-width:2px;}.cls-33{opacity:0.18;}</style><clipPath id="clip-path"><path class="cls-1" d="M94.5,196.93l55.4-18.25s-8.82-48.33-30.26-59S76.44,171.09,94.5,196.93Z"/></clipPath><clipPath id="clip-path-2"><circle class="cls-1" cx="121.1" cy="467.28" r="66.5" transform="translate(-28.88 8.46) rotate(-3.57)"/></clipPath><clipPath id="clip-path-3"><path class="cls-1" d="M345.13,165.35c29.65-2.23,58.32-11.62,58.32-11.62s-16-57.78-38.11-67S325.81,160.23,345.13,165.35Z"/></clipPath><clipPath id="clip-path-4"><path class="cls-1" d="M471.56,224.45l.57,100c0-.25-9.53-.43-24.7-.43l-.57-100C462,224,471.56,224.2,471.56,224.45Z"/></clipPath><symbol id="WordPress" data-name="WordPress" viewBox="0 0 47 47"><path d="M23.5,0A23.5,23.5,0,1,0,47,23.5,23.52,23.52,0,0,0,23.5,0ZM2.37,23.5A21,21,0,0,1,4.2,14.9L14.28,42.51A21.13,21.13,0,0,1,2.37,23.5ZM23.5,44.63a21.12,21.12,0,0,1-6-.86l6.34-18.42,6.49,17.79a2,2,0,0,0,.15.29A21.09,21.09,0,0,1,23.5,44.63Zm2.91-31c1.27-.07,2.42-.2,2.42-.2a.87.87,0,0,0-.13-1.74s-3.42.27-5.63.27-5.56-.27-5.56-.27a.87.87,0,0,0-.13,1.74s1.08.13,2.22.2l3.29,9L18.25,36.48,10.55,13.59c1.27-.07,2.42-.2,2.42-.2a.87.87,0,0,0-.14-1.74s-3.42.27-5.63.27l-1.36,0a21.12,21.12,0,0,1,31.92-4l-.27,0a3.66,3.66,0,0,0-3.55,3.75c0,1.74,1,3.21,2.08,5a11.13,11.13,0,0,1,1.74,5.83c0,1.81-.7,3.91-1.61,6.83L34,36.3ZM42,13.36a21.13,21.13,0,0,1-7.92,28.4L40.57,23.1a20,20,0,0,0,1.61-7.57A16.21,16.21,0,0,0,42,13.36Z"/></symbol></defs><title>space-cadet-wapuu</title><g class="cls-2"><g id="Layer_4" data-name="Layer 4"><path class="cls-3" d="M473.81,324.21V230.73c3.33-5,2.33-19.17,0-23.66V197c0-15.18-31-30.81-33.78-32.18s-4.71-1.36-7.82,0l-1.1.49L428,162.91c8-10.45,13.47-30.46,7.52-57.36-7.23-32.68-38.57-35.48-59.71-33.79-24.69-34.13-69.28-63.32-137.12-58-59.15,4.6-99.25,30-123.11,60.78a42.36,42.36,0,0,0-6-3.15C99.18,67,86.59,74.74,81.34,78.51c-7.82-3-15.26-3.5-20.88-1h-2.6L51.2,71.05C58.59,63.56,63.69,57.43,63,56.74s-7,4.32-14.63,11.6l-7.16-6.9c3.92-4.25,6.3-7.84,5.55-8.6S42.34,54.43,38,58.31l-9.43-9.08h0l-.61-.59a8.37,8.37,0,1,0-16.11-2.38c-.66,1.28.44,3.9,2.93,5.64a8.37,8.37,0,0,0,7.87,1.62l1.7,1.84h0l7.92,8.57c-3.92,4.25-6.3,7.84-5.56,8.6S31,71,35.3,67.24L41,73.44l1,1.11C34.67,82,29.57,88.16,30.25,88.85s6.86-4.24,14.46-11.43l6,6.44c-1.28,5.05-.49,10.39.7,14.62a44.76,44.76,0,0,0,4.19,12.63,19.63,19.63,0,0,0-2.71,7.56,43.82,43.82,0,0,0-1.7,5c-4,.33-8,2.27-11.82,6.74-7.59,9-8.61,19.18-6.9,28.62h0A67.28,67.28,0,0,0,38,175.66h0c3.22,7.72,15.26,33.28,15.26,33.28,1.35-.39,8.78-3.44,10.09-3.89l11.68,24c-5.43,10.51-14.6,30.65-17.43,42.69a146.68,146.68,0,0,0-3.8,38.61c-15.58-1.07-30.46,15.35-22.17,36.29a132,132,0,0,0,13.72,24.68c3.87,6,20.76,30.9,37.52,39.52a67.48,67.48,0,0,0,42.36,122.7,66.19,66.19,0,0,0,38.52-15.36c1.82,1.6,4.13,3.19,6.1,2.93,0,0,1-1.06,2.57-3l0,0,.12,0q1.95.34,4,.61s15.88,9.34,69-5.6c2.84-.8,5.62-1.78,8.39-2.76h0a183.23,183.23,0,0,0,63.75-37.58c25.35-22.11,44.54-49.83,54.56-78.81a150.19,150.19,0,0,0,9.79-16.13h1.48l21.53-.11-3.59-7.19a13.32,13.32,0,0,0,9.42,3.82h11.87v2.31l-11.2,19.63,22.93-.12,22.93-.12-2.81-4.81h0l-8.76-15-1.11-1.9H461c7,0,12.8-5.27,12.8-11.7V347.16C477.12,342.05,476.17,329,473.81,324.21Zm-53.51-216a74.13,74.13,0,0,1,2.12,13.32,76.94,76.94,0,0,1-3.44,23c-.6-.64-1.22-1.27-1.87-1.89l.2-.44-3.43-2.42a109.83,109.83,0,0,0-14.65-10.07c-1.29-13.08-6-28.4-14.32-43.57a59.42,59.42,0,0,1,11.41,1.27C404.83,89.57,415.69,94.16,420.3,108.24Zm-127,332.69c1.46-.2,2.92-.42,4.41-.68q-2.78,2.56-5.65,5C292.46,443.78,292.87,442.35,293.26,440.93Zm-101.54,36c.3-1.54.57-3.11.79-4.71a54.19,54.19,0,0,0-4.93-2.56c.08-2.17.05-4.37-.08-6.58a66.81,66.81,0,0,0-1.88-12,145.73,145.73,0,0,0,70.58-10.35,233.58,233.58,0,0,0,32,7.66c-17.43,13.86-37.12,24.07-56.24,29.57C217.69,480.52,203.9,480.25,191.72,476.88Zm204.9-116.23-2.38-11.22q.82-2.36,1.6-4.75c.6,4.14,1.37,8.6,2.3,12.59v5.33a10.68,10.68,0,0,0,.08,1.26Z"/><path class="cls-4" d="M333.25,402.43A148.47,148.47,0,0,1,313,430.9C275,473,219.38,489.61,183.17,474c-9.22-4-21.06-5.3-26.48-14.39-20.27-34-60.63-35.74-61.63-3.62-.61,19.61,31.37,49.67,70.6,60.63,17.83,5,50.2,4,69-.5,69.9-16.62,125.46-73.54,141-133.34Z"/><path class="cls-5" d="M392,126c-2.77-1.37-4.71-1.36-7.82,0s-34.07,15-34.06,32.18V323.71c0,6.44,5.76,11.7,12.8,11.7H413c7,0,12.8-5.27,12.8-11.7V158.13C425.79,142.95,394.78,127.32,392,126Z"/><polygon class="cls-4" points="457.46 396.11 434.53 396.22 411.59 396.34 422.96 376.42 434.32 356.5 445.89 376.31 457.46 396.11"/><polygon class="cls-4" points="405.09 377.78 383.56 377.89 362.03 378 372.7 359.3 383.37 340.59 394.23 359.19 405.09 377.78"/><polygon points="417.54 154.99 464.54 191.24 409.15 215.03 370.04 170.3 417.54 154.99"/><path class="cls-5" d="M440,165c-2.77-1.37-4.71-1.36-7.82,0s-34.07,15-34.06,32.18V362.71c0,6.44,5.76,11.7,12.8,11.7H461c7,0,12.8-5.27,12.8-11.7V197.13C473.79,181.95,442.78,166.32,440,165Z"/><path class="cls-6" d="M453.46,372.54s-27.2-105.37-18.93-167.88c0-24.15-1.4-31.17-5.07-33.91s-35.32,23.45-35.32,23.45V330.46s3,35.65,9.32,38.83S453.46,372.54,453.46,372.54Z"/><path class="cls-7" d="M473.79,207.16c2.33,4.48,3.33,18.66,0,23.66-4.67,0-57.2,2.08-70.93-3.13s-.58-20.67-.58-20.67S441.79,210.51,473.79,207.16Z"/><path class="cls-7" d="M473.58,323.91c2.56,4.48,3.66,18.66,0,23.66-5.12,0-62.79,2.08-77.86-3.13s-.64-20.67-.64-20.67S438.46,327.25,473.58,323.91Z"/><path class="cls-8" d="M96.67,185.13c-27.78-45.53,9-161,142-171.31,128.52-10,173.62,103.66,158,140.39C389.79,170.24,109.91,206.83,96.67,185.13Z"/><g class="cls-9"><path class="cls-10" d="M120.91,134.79c-6-14.18-11.35,2.17-13,8.86s-16.06,56,9.73,80.94,57.41,19.76,55.82,12.87S133.32,164,120.91,134.79Z"/><g class="cls-11"><path class="cls-12" d="M127.24,154.85s-11.36,28.71-1.77,46.27,48,36.34,48,36.34S155.57,256.85,111.67,218c-7.48-14.49-15-35.22.86-86.25C115.88,124.84,127.24,154.85,127.24,154.85Z"/></g></g><path class="cls-13" d="M240.46,433.21c23.77,7.48,57.39,10.65,104.79-14.11,71.73-45.27,67-198.71,47.54-261.59S327,57.81,264.08,53.53,154.25,73.44,124.89,116.19c-19.59,28.81-11,52.63,7.69,57.21Z"/><g class="cls-11"><path class="cls-12" d="M118.85,129.25s6.61,25.73,31.06,29.89c31.84,5.41,42.71-10.81,42.71-10.81s46.67,25.37,98.27-7c28.12-17.66,10.9-43.9,10.9-43.9S295.2,81.81,263,74.31c0,0,52.3,10.5,54.55,39.84s-37.71,61.61-37.71,61.61-143.19,8.28-153-3.11S105.85,147.89,118.85,129.25Z"/></g><path class="cls-14" d="M293.79,159s55,13,107.38-7.9c0,0,42,192.62-57.16,270.8l-6.75-84.74S377.29,235.54,293.79,159Z"/><path class="cls-6" d="M375.69,330.46l-1.11-21.72s-16.45-27.26-2.45-29.26c0,0-14.21-29.53-27.75-34.94l2.48,60.34-.57,18.53Z"/><path class="cls-7" d="M333.74,231.23S372,302.74,401.46,324l-4.37,21S318.69,276.87,333.74,231.23Z"/><polygon class="cls-7" points="397.43 323.37 342.51 317.07 336.88 338.6 393.45 344.07 397.43 323.37"/><path class="cls-15" d="M138.56,99.44S222.79,45,290.89,82.74c47,26,22.1,66.71,0,82s-43.1,18.41-43.1,18.41l110.5-25.41-2.67-34.9s-17.33-19.26-2-33.44C334.81,71.82,230.07,10.41,138.56,99.44Z"/><path class="cls-16" d="M243.64,436.44c24.29,8.18,60.6,10.49,100.36-14.53,71.73-45.27,78.29-206.52,58.78-269.4-.3-1-10.61,3.07-10.92,2.12C371.85,93.5,326,57.74,264.08,53.53c-62.89-4.28-109.82,19.91-139.19,62.66-19.59,28.81-11,52.63,7.69,57.21,16.06,3.93,48.93-6.33,60-25.07,24.32,16.18,82.45,15.86,103.49-10.88"/><path class="cls-17" d="M78.84,80.5s17.24-14.67,30.68-9.06c13,5.43,29.12,22.22,23.76,28.17s-12.4-15.51-29.51-1.18S78.84,80.5,78.84,80.5Z"/><path class="cls-18" d="M91.17,154.55C87.71,160.93,73,158,61.25,145c-12.22-13.55-9.69-30.27-4.32-35.53,2.42-2.37,6.77,4,4.37,8.88-3.39,6.83.75,17.13,5.6,22.7C82.27,158.68,97.72,142.51,91.17,154.55Z"/><path class="cls-18" d="M79.44,131.35s-6.72,15.64-19,23.87-1.72,15.65-1.72,15.65,19.38,8.61,46-26.93C104.77,143.93,95.19,127.37,79.44,131.35Z"/><polygon class="cls-18" points="66.78 101.42 20.26 51.1 25.26 46.2 74.64 93.72 66.78 101.42"/><ellipse class="cls-18" cx="85.25" cy="110.62" rx="24.75" ry="42" transform="translate(-53.06 91.29) rotate(-44.42)"/><circle class="cls-17" cx="20.14" cy="45.62" r="8.38" transform="translate(-26.17 27.14) rotate(-44.42)"/><ellipse class="cls-19" cx="36.71" cy="62.79" rx="14.07" ry="2.36" transform="translate(-33.46 43.64) rotate(-44.42)"/><ellipse class="cls-19" cx="46.61" cy="72.89" rx="22.94" ry="1.99" transform="translate(-37.7 53.46) rotate(-44.42)"/><use width="47" height="47" transform="translate(85.98 91.59) rotate(41.28) scale(0.64)" xlink:href="#WordPress"/><path class="cls-6" d="M59.07,115.4s31,25.25,42,16,4.6-32.26,4.6-32.26,23.33,32.46,8.92,41.48S102.4,147,102.4,147L89.21,163,49.44,131.09S53.36,108.32,59.07,115.4Z"/><path class="cls-14" d="M202.54,188c-64.15,7.58-86.82,5.25-121-33.12-16.89-19-40.58,14.87-29,31,30.48,42.6,26.42,74.09,26.42,74.09S168.45,233.15,202.54,188Z"/><path class="cls-16" d="M45.16,179.37c36.79,39.76,33.68,79.08,33.68,79.08"/><path class="cls-16" d="M202.54,188c-68.69,6.91-97.69,1.15-124.35-42.61"/><path class="cls-5" d="M53.28,209a104.19,104.19,0,0,0-9.06-21.78c-6-10.36-22-36.52-4.92-56.73,16.48-19.55,38.25,9.25,38.25,9.25s5.94,10.41,14.88,17.12,14.76,8.45,14.76,8.45S89,198.79,53.28,209Z"/><circle class="cls-20" cx="200.28" cy="305.29" r="146.54" transform="translate(-142.65 430.62) rotate(-76.81)"/><path class="cls-6" d="M230.65,165c-44.12-9.08-59.58-.27-66.84-.9,70.38,1.22,149.65,97.72,133.5,166.64S216.91,443,145.62,436.79c6.79,2.66,11.86,6.23,19.18,7.94,79.17,18.56,158-27.91,175.58-103.91C359.16,259.44,310.3,181.36,230.65,165Z"/><path class="cls-21" d="M290.7,201.77c.12-.08.22-.18.33-.27a7,7,0,1,1,1.56-10.35c-.08-.12-.15-.24-.24-.36a7.81,7.81,0,1,0-1.65,11Z"/><path class="cls-21" d="M319.83,249l.3,0a4.84,4.84,0,1,1,5.79-4.36c0-.1,0-.19.06-.29a5.44,5.44,0,1,0-6.14,4.62Z"/><path class="cls-21" d="M328.51,297.49c.13-.09.24-.2.36-.29A7.6,7.6,0,1,1,330.63,286c-.09-.13-.16-.26-.26-.39a8.53,8.53,0,1,0-1.86,11.92Z"/><path class="cls-21" d="M335,342.58c.13-.09.24-.2.36-.29A7.6,7.6,0,1,1,337.14,331c-.09-.13-.16-.26-.26-.39A8.53,8.53,0,1,0,335,342.58Z"/><path class="cls-21" d="M323.79,366.81c-.09-.13-.2-.24-.29-.36a7.6,7.6,0,1,1-11.24-1.75l-.39.26a8.53,8.53,0,1,0,11.92,1.86Z"/><path class="cls-21" d="M270.61,409.33c0,.13.08.25.12.38a6.4,6.4,0,1,1,8.24,4.9l.39-.08a7.19,7.19,0,1,0-8.74-5.2Z"/><path class="cls-21" d="M248.37,437c0-.11,0-.22.07-.32a5.37,5.37,0,1,1-4-7l-.32-.1a6,6,0,1,0,4.3,7.38Z"/><path class="cls-22" d="M233.28,190c-.25-.06-.51-.09-.76-.14a12.5,12.5,0,1,1-15.91,9.87c-.07.25-.15.49-.21.74A14,14,0,1,0,233.28,190Z"/><path class="cls-22" d="M207.47,296c0-.26,0-.51,0-.77a12.5,12.5,0,1,1-11.95-14.41c-.25,0-.5-.08-.76-.11A14,14,0,1,0,207.47,296Z"/><path class="cls-22" d="M222.17,266.35c.14.21.31.41.46.61a12.5,12.5,0,1,1,18.4,3.42c.22-.13.44-.26.66-.4a14,14,0,1,0-19.53-3.62Z"/><path class="cls-22" d="M73.82,319.27c.11-.11.2-.24.3-.36a7.6,7.6,0,1,1-.34-11.37l-.32-.34a8.53,8.53,0,1,0,.36,12.06Z"/><path class="cls-22" d="M158.56,416.6c.11-.11.2-.24.3-.36a7.6,7.6,0,1,1-.34-11.37c-.11-.11-.21-.23-.32-.34a8.53,8.53,0,1,0,.36,12.06Z"/><path class="cls-22" d="M161.32,182.12c-.07.14-.12.29-.17.43a7.6,7.6,0,1,1,4,10.66l.42.21a8.53,8.53,0,1,0-4.22-11.31Z"/><path class="cls-22" d="M278,289.41l-.46.1a7.6,7.6,0,1,1-6.51,9.33c0,.16,0,.31.06.46a8.53,8.53,0,1,0,6.91-9.89Z"/><path class="cls-22" d="M85.25,347.68c-.23.12-.44.26-.67.39a12.5,12.5,0,1,1-5.71,17.83c.1.23.2.47.32.7a14,14,0,1,0,6.06-18.91Z"/><path class="cls-22" d="M232.84,375.42c-.21-.15-.43-.28-.65-.42a12.5,12.5,0,1,1-18.49,2.93c-.16.2-.33.39-.48.6a14,14,0,1,0,19.62-3.11Z"/><path class="cls-21" d="M289.41,368.27a10.29,10.29,0,1,0,2.34,14.37A10.29,10.29,0,0,0,289.41,368.27Zm-11.63,15.6q3-5.17,6.62-10.15,1.84-2.55,3.77-5a9.19,9.19,0,0,1-10.4,15.14Z"/><path class="cls-22" d="M277.21,372.15a9.19,9.19,0,0,1,11.44-2.91l.69-1A10.28,10.28,0,0,0,277,384.63l.85-1A9.18,9.18,0,0,1,277.21,372.15Z"/><path class="cls-21" d="M201.17,438a10.29,10.29,0,1,0-7.8,12.29A10.29,10.29,0,0,0,201.17,438Zm-19.05,3.93q5.72-1.84,11.69-3.18,3.07-.69,6.14-1.22a9.19,9.19,0,0,1-17.83,4.4Z"/><path class="cls-22" d="M189.47,432.79a9.19,9.19,0,0,1,10.48,5.43l1.2-.31A10.28,10.28,0,0,0,181,442l1.31-.19A9.18,9.18,0,0,1,189.47,432.79Z"/><path class="cls-21" d="M289.38,227a10.29,10.29,0,1,0,13.81,4.6A10.29,10.29,0,0,0,289.38,227Zm8.42,17.54q-3.17-5.1-5.91-10.58-1.41-2.81-2.67-5.66a9.19,9.19,0,0,1,8.58,16.24Z"/><path class="cls-22" d="M287.15,239.6a9.19,9.19,0,0,1,2.74-11.48L289.3,227a10.28,10.28,0,0,0,8.79,18.58l-.5-1.22A9.18,9.18,0,0,1,287.15,239.6Z"/><path class="cls-22" d="M115.27,405.08l.36.18a6.54,6.54,0,1,1,9.41-2.72c.07-.12.15-.23.21-.34a7.35,7.35,0,1,0-10,2.89Z"/><path id="WordPress-3" data-name="WordPress" class="cls-22" d="M151.84,380a61.52,61.52,0,0,1-17.38-3c0-18.82,1.14-42.2,14.62-81.82a594.05,594.05,0,0,0,28.25,80.32c-3.35,1.2-13.53,4.86-25.48,4.5m-28.13-7.59c-46.57-27.08-50.23-80.52-29.78-119.32-3.41,40.09,4.66,72.43,29.78,119.32m67-3.23c11.1-32.56,27.18-63.14,38.11-95.77a67.08,67.08,0,0,0,3.24-27.65c19,37.48,10.91,91.91-41.35,123.43M102.14,240.36c25.44-31.67,70.34-55,113.17-16.48-.31,0-29.77-1.65-11.63,32,9.81,18.19,9.16,31.93-2.75,58.8-4.67,13.37-6.08,17.4-10.44,31.22-10.68-35-19.28-64.79-24.66-102.28,8.09-.37,17.25-.78,13.13-6.38-.52-.7-42.93-.77-43.34-.74-3.28.22-4.23,4-4.24,4-.64,3-.09,3,9.06,3.35,1.1,13.16,1.6,19.16,5.63,38.61-6.07,17.36-12.36,35.31-15.83,63.74-15.3-40-20.3-67.2-18.43-100.4,2.88-1.38,6.44-.36,9.09-2.58,1.81-1.51,3-5.21,1-5.86-7.08-2.29-13.12,2.28-19.75,3M173.67,197c-73-1.32-131,103-72.7,166.47,59.06,64.36,146.75-2.28,151-71.88,3.26-54-37.83-92.47-78.27-94.6"/><path id="WordPress-4" data-name="WordPress" class="cls-23" d="M148.76,378.83a61.52,61.52,0,0,1-17.38-3c0-18.82,1.14-42.2,14.62-81.82a594.05,594.05,0,0,0,28.25,80.32c-3.35,1.2-13.53,4.86-25.48,4.5m-28.13-7.59C74.06,344.17,70.4,290.72,90.85,251.93c-3.41,40.09,4.66,72.43,29.78,119.32m67-3.23c11.1-32.56,27.18-63.14,38.11-95.77A67.08,67.08,0,0,0,229,244.59c19,37.48,10.91,91.91-41.35,123.43M99.06,239.2c25.44-31.67,70.34-55,113.17-16.48-.31,0-29.77-1.65-11.63,32,9.81,18.19,9.16,31.93-2.75,58.8-4.67,13.37-6.08,17.4-10.44,31.22-10.68-35-19.28-64.79-24.66-102.28,8.09-.37,17.25-.78,13.13-6.38-.52-.7-42.93-.77-43.34-.74-3.28.22-4.23,4-4.24,4-.64,3-.09,3,9.06,3.35,1.1,13.16,1.6,19.16,5.63,38.61-6.07,17.36-12.36,35.31-15.83,63.74-15.3-40-20.3-67.2-18.43-100.4,2.88-1.38,6.44-.36,9.09-2.58,1.81-1.51,3-5.21,1-5.86-7.08-2.29-13.12,2.28-19.75,3m71.53-43.39c-73-1.32-131,103-72.7,166.47,59.06,64.36,146.75-2.28,151-71.88,3.26-54-37.83-92.47-78.27-94.6"/><path class="cls-5" d="M69.42,318.52c-18-20.06-49,0-37.78,28.23,8.23,20.81,33.6,55.07,53.83,62.73,22.11,8.38,19.5-18.13,16.38-26.64-2.74-7.47-8.25-20.57-14.34-33.25C81.31,336.67,74.51,324.19,69.42,318.52Z"/><path class="cls-6" d="M44.53,370.14s29.62,47.68,51.81,43.5-7.64-55.82-7.64-55.82S119.19,450.47,44.53,370.14Z"/><path class="cls-14" d="M360.86,352.6s-8-25.54-58.34-19S242.67,395,242.67,395s-15.76,30,4.06,38.82c16.77,7.46,96.09,17.83,130-59.11Z"/><circle class="cls-8" cx="120.04" cy="466.09" r="66.5" transform="translate(-348.56 575.94) rotate(-88.75)"/><g class="cls-24"><path class="cls-10" d="M328.8,400.91a148.47,148.47,0,0,1-20.28,28.47c-47.62,52.8-129.61,73.5-156.28,28.74-20.27-34-60.63-35.74-61.63-3.62-.89,28.52,66,74.89,126.08,60.59,69.9-16.62,131.47-73.71,147.06-133.52Z"/><g class="cls-11"><path class="cls-12" d="M311.27,426.24s22.72-1.81,19.19,2.4-43.31,54.53-110.78,73c-79.36,21.76-92.85-42.14-92.85-42.14s-5.49-21.1,5.79-17.13-26.95-25.08-40.6,3.48,44.44,58.83,54.32,62.38S234.1,550.63,334,439.31c19.69-26.41,24.8-42.69,24.8-42.69l-38.3,8.48Z"/></g></g><path class="cls-25" d="M247,183.7s21-3.14,43.1-18.41,48.82-59.65,0-82c-77.94-35.66-153.5,19.51-153.5,19.51"/><path class="cls-25" d="M354.8,123.39s-17.33-19.26-2-33.44"/><g class="cls-26"><path class="cls-10" d="M367.56,101.68c-6.91-13.77-11.19,2.89-12.42,9.66S342.65,168.2,370,191.5s58.54,16.1,56.52,9.31S381.79,130,367.56,101.68Z"/><path class="cls-27" d="M374.92,117.89s-13.45,24.81-20.12,26,0,22.21,0,22.21L396.09,155Z"/></g><g id="face"><path class="cls-12" d="M197.74,120.27c7.47-.27,5.84,8.82-1.21,13.75-6.5,4.54-7,4-13.46,2.51s-7.72-7.73-1.42-12.13C185.18,121.94,190.27,120.54,197.74,120.27Z"/><path class="cls-12" d="M153.47,121.17c-3.76.23-6.92,1.49-6.69,5.26a6.83,6.83,0,1,0,13.63-.84C160.18,121.82,157.24,120.94,153.47,121.17Z"/><path class="cls-12" d="M242.56,103.77c-3.73.57-6.76,2.12-6.19,5.84a6.83,6.83,0,0,0,13.5-2.08C249.3,103.81,246.29,103.19,242.56,103.77Z"/><path class="cls-28" d="M196.8,120.25c7.47-.27,5.84,8.82-1.21,13.75-6.5,4.54-7,4-13.46,2.51s-7.72-7.73-1.42-12.13C184.25,121.92,189.33,120.52,196.8,120.25Z"/><path class="cls-28" d="M152.55,121.28c-3.76.23-6.92,1.49-6.69,5.26a6.83,6.83,0,0,0,13.63-.84C159.25,121.94,156.31,121.05,152.55,121.28Z"/><path class="cls-28" d="M241.65,104c-3.73.57-6.76,2.12-6.19,5.84a6.83,6.83,0,0,0,13.5-2.08C248.39,104,245.38,103.39,241.65,104Z"/></g><path class="cls-5" d="M283.69,179.72s62.14,7.38,121.54-22.69c0,0,2.08-11.54-2.63-14.46s-46.36,25.6-119.83,22.78C282.77,166.76,277.54,174.35,283.69,179.72Z"/><path class="cls-14" d="M374,278.6C338,225,311.23,203.78,260.67,212.1c-47.53,7.82-51-15.79-51-15.79-2.11-7.63,2-26.43,41.64-36.89,39.47-10.42,97.66,16.64,97.66,16.64S386.09,223.29,374,278.6Z"/><path class="cls-6" d="M408.73,208.45l-51.5-33.3s33.29-18.77,34.43-26.38,6.54-3.48,8.74-4.83,1.39-12.53,1.39-12.53l15.5,11L410,158.45l-.92,24Z"/><path class="cls-7" d="M412.23,238s-28.67-50.42-94.69-71.49c30.34-3.47,81.89,22.14,94,44.56Z"/><path class="cls-16" d="M374.57,279.79C334,223.9,310.46,206.07,260.05,215.27c-47.39,8.65-51.29-14.9-51.29-14.9-2.25-7.59,1.72-25.86,41-37.61,40.24-12,84,9.83,84,9.83"/><path class="cls-5" d="M214.26,323.44a13,13,0,0,0-7.22,1.71c-14.73,8.11-12.87,24.53-8.34,48.66,1.12,6,2.28,12.14,2.85,17.87.74,7.46-.05,15.69-.82,23.64-1.2,12.36-2.28,21.13,3,27,2.31,2.57,6.07,4,11.5,4.31,27.46,1.69,34.43-21.36,34.72-22.51a5.33,5.33,0,0,1,.23-.73c6.34-15.77,8.72-28.69,3.15-51.81C249.79,356.06,247.94,325.13,214.26,323.44Z"/><path class="cls-16" d="M357.22,351.07c-6.37-10-29.16-22.39-58.68-16S254,368.35,254,368.35"/><path class="cls-16" d="M341.35,334.62C359.17,281.27,323,224.34,323,224.34"/><path class="cls-25" d="M304.28,189.86s26.35,4.34,55.51,29.6"/><text></text><path class="cls-5" d="M278.95,330.46s35.67,46,11.95,118.35a229.49,229.49,0,0,1-47.25-12.37c8.24-12.75,18.66-41.08,9.86-66.55C255.29,360.75,275.54,341.59,278.95,330.46Z"/><path class="cls-5" d="M294.25,151.35a159.29,159.29,0,0,1-29,8.08c-15.37,2.61-55.07,8.51-57.67,34.94-2.51,25.56,45.17,22.17,45.17,22.17s15.39-2.66,30.2-.57,22.42,8,22.42,8S318.79,184.9,294.25,151.35Z"/><path class="cls-5" d="M169.86,521.22s18.63-19.77,22.63-48.95c0,0-7.63-4.54-10-3.81s-1.4,22.68-21.81,46.8C161.23,515.68,166.17,521.7,169.86,521.22Z"/><path class="cls-7" d="M410,158.45s-.15,6.95,9.24,10c.9,0,4.15-.06,7.38-3.72,8.71-9.89,15.17-30.63,8.89-59C427,67.52,385.78,70.07,366.21,73c-2.16,6.71,1.83,13.46,6,14.61,3.48-1.56,41.33-6.12,48.09,20.76S417.21,154,410,158.45Z"/><path class="cls-25" d="M373.79,344.12s-11.25,43.34-73.62,50.35"/><path class="cls-6" d="M309,368.35s2.13,25.34,3.44,31.24,3,10.46,6.64,11.51,20.68-2.62,22-3.62,4.32-2.74,5.33-2,10.77-9.1,10.77-9.1l-8.72-23.8A82.08,82.08,0,0,0,309,368.35Z"/><path class="cls-29" d="M310.6,369.3s7.43,33,9.62,35.68,25.82-6.81,28-9.56-9.8-39.51-9.8-39.51S307.85,359.42,310.6,369.3Z"/><path class="cls-6" d="M326,367.57s6.17,22.25,5.8,25.25-8.61,7.49-11.24,6.77-3.21,6.7,2.2,5.67,20.41-4.43,20.41-4.43S349.92,383.32,326,367.57Z"/><path class="cls-29" d="M342.83,354.31s14.59,33.17,13.34,37.06-12.41,11-15.08,8.43-14.8-38.7-14.8-38.7-1.59-5.2,2.73-7.12C331.41,352.93,340.31,348.55,342.83,354.31Z"/><g class="cls-2"><g class="cls-2"><g class="cls-30"><path d="M468.48,300.24a7.7,7.7,0,0,1-3.35-1.08c1.56-8.73,2.23-13,3.39-21.5,2,14.27,2.49,21.15,2.49,21.18a2.42,2.42,0,0,1-2.54,1.4m-5.6-2.59A29,29,0,0,1,454,265.25c3.39,11,5.81,19.44,8.89,32.41m9.08-3.93a16.79,16.79,0,0,1-.24,3.33c.1-3.66.21-7.81.19-13.07l.06,9.73m-15.13-32-1.18,0c4-8.29,13.33-14.48,15.49-8.68,1,2.56.69,29.12.69,29.39,0,2.47-.1,5.75-.16,8.22-.3-6-.72-14.28-2.15-26.74,2.12-.31.82-2.21.81-2.23-1.91.38-3.8-.66-5.71-.07a1.53,1.53,0,0,0,0,1.84,6.66,6.66,0,0,0,1.61.37c1,5.42,1.11,6.12,1.83,10.61-.92,6.55-1.24,8.76-2.5,16.19-1.14-6-2.7-14.28-5.77-26.89,2-.14,2.05-.21,2.31-.45a1.54,1.54,0,0,0-.06-1.62c-.18-.19-.28-.19-.7-.15-.25,0-2.54.24-4.49.24M472,297.36l-.25-43.25,0-1.22c-.47-4-1.53-5.1-4.73-4.81-19.52,5.65-24.74,41.33-2.49,53.62,7.44,4.11,7.49-2.25,7.51-4.34"/></g></g></g><path class="cls-25" d="M230.07,445.76c13.39-15.5,5.59-45.75,7.51-67.77,3-33.93-8.51-50.76-8.51-50.76"/><path class="cls-23" d="M239.29,27.49s35.5-6.75,59.43,3.5c0,0-2.83,5.84-.63,6.92C298.09,37.91,283,26.21,239.29,27.49Z"/><path class="cls-23" d="M307.51,33.2S308,39.94,306,42c0,0,3.88-1,6.29,1.72,0,0-.8-6.75,1.68-7.5C313.93,36.21,309.32,35.32,307.51,33.2Z"/><path class="cls-23" d="M69.56,495.32s-16.51-28.5-3.27-46.5c0,0,5,1.88,5.74,0C72,448.81,59.8,464.69,69.56,495.32Z"/><path class="cls-23" d="M71.66,439.35s4.88.9,5.94,2.79c0,0,0-3.06,2.45-4.32,0,0-4.95-.67-5-2.65C75.05,435.18,73.52,438.41,71.66,439.35Z"/><path d="M386,233.79l-6.68,9.29-2.26-1.47,4.16-5.79L375.27,232l-4.16,5.79-2.28-1.48c-3-2-4.42-4.17,2.76-11.84l2.26,1.47c-4.46,4.61-4.16,5.79-2.72,6.73l.33.21,4.16-5.79Z"/><circle class="cls-31" cx="375.69" cy="233.76" r="12.07"/><g class="cls-32"><path d="M387.06,235.21l-6.68,9.29L378.12,243l4.16-5.79-5.95-3.86-4.16,5.79-2.28-1.48c-3-2-4.42-4.17,2.76-11.84l2.26,1.47c-4.46,4.61-4.16,5.79-2.72,6.73l.33.21,4.16-5.79Z"/><circle class="cls-31" cx="376.76" cy="235.18" r="12.07"/></g><path class="cls-25" d="M233.75,477.66s16.21,14.83.9,38.49"/><path class="cls-25" d="M281.22,457.93s20,1.1,25.52,23.83"/><path class="cls-25" d="M329.29,430s11,3.56,17,11.5"/><path class="cls-6" d="M186.54,501.49s75,11.27,123.89-43.55c0,0,1-8.32-14-6.55l9.14-11.13,31.21-12.77,29.56-22.23S337.79,481.76,254,510.41c-65.52,22.4-77.39,8.36-77.39,8.36l-4.13-.62-2.6,3.07-6-5.08L170.12,502S179.95,495.49,186.54,501.49Z"/><path class="cls-6" d="M301.48,411.29s3.37,12,13.67,10.62S352,411,363.62,394.47s16.84-36.65,14.51-40c0,0-15.22-8.21-18.33-8.37s-14-5.27,0-3.63,33.71,3.63,33.71,3.63l3.1,14.63,8.49,17-22.35-1.16S360,418,326,431.55s-30.63,6.16-30.63,6.16S297.84,407.76,301.48,411.29Z"/><path class="cls-6" d="M202.63,378s6.57,27.26,5.63,33.1C205,431.73,219.33,432,227.05,430c7-1.82,1-41.51,2-47.16s5.3-26,4.68-34.83,3.58,27.64,7.48,32.41a8.71,8.71,0,0,0,10.89,2.42c1.67-1,5-17,6.16-16.47s-4.58,34.37,10.18,37.49S299,398.28,299,398.28l-9.68,50.31-42-10-11,2.94s-13.11,9.57-22.85,5.17-14.6-8.41-13.67-19.9S201.52,374.21,202.63,378Z"/><path class="cls-6" d="M422.79,382.8s16-1.56,20.67,2.89a24.19,24.19,0,0,0,11.19,5.6l-8.76-15-23.1-2.09Z"/><path class="cls-6" d="M306.74,335.41s-17.92,3.7-11.43,23.89l-9.91-19.76S301,333.66,306.74,335.41Z"/><path class="cls-6" d="M270.39,350.82s-11.54,21.35-10.9,27.17-5.51-9.65-5.51-9.65"/><path class="cls-6" d="M310.43,165.35s-1.75,26.68,6.47,37.91a170.54,170.54,0,0,1,14.46,24.45L306.74,215l-1.35,9s-8.92-13.43-62.26-9c-16.26,2.31-18.54-3.39-18.54-3.39s33-3.57,53.61-3.2,20.71,1.73,22.82-5.28,4.17-33.61-.38-41.41S310.43,165.35,310.43,165.35Z"/><path class="cls-27" d="M346.09,320.1l-2.89,16.68,45.65,7.34,74.28,2.48s-43.92-3.12-53.12-19.45C405.69,323.41,384.72,341.38,346.09,320.1Z"/><path class="cls-27" d="M333.13,236.75s50.32,79.47,59.32,83.35-21-.95-21-.95l-26-35.67Z"/><path class="cls-27" d="M362,176.26s44.85,41.17,48,42.86,4.46-10.68,4.46-10.68,21,19,43,20.83H414.79L410,238s-35.06-51.14-72.21-63.67S362,176.26,362,176.26Z"/><path class="cls-27" d="M417.29,164.79s20.38-24.21,11.17-54.33-28-32.12-46-30.88-8.67-6.69-8.67-6.69-12.67-7.41-14-4.41S359.6,88.42,366.36,90s14.57-5.61,22.48-4,25.26,3.51,31.44,22.34-3,41.25-3,41.25S401.16,162.35,417.29,164.79Z"/><path class="cls-6" d="M341.13,109s-1.5,17.38-32.09,37.45,3.22,18.2,3.22,18.2l39.63-6,.55-40.06s-12.76-14.31-2.32-25.44c3.47-3.69-14.44-16.16-14.44-16.16A35.43,35.43,0,0,1,341.13,109Z"/><path class="cls-6" d="M77.13,229.28,63.79,203.79,53.28,209s-12-25.55-15.26-33.28a156,156,0,0,1-5.62-16.62s12.4,28.24,32.4,17.63,16.49-31.42,16.49-31.42,18.71,21.3,24.44,21.05-3.46,6.49-3.46,6.49l16.55,11.46s4.78,40.94-40.62,46.37"/><path class="cls-6" d="M220.88,216.71s6.35,9.5,46.05,10.31c1.7-2.85-10.48-11-10.48-11S250.81,217.81,220.88,216.71Z"/><path class="cls-6" d="M28.52,49.33,57.85,77.56h8.74s-16.68,13.3-12.07,29.11c0,0-6.6-12-3.88-22.72L24.3,55.46Z"/><path class="cls-27" d="M98.12,86.19S115.7,78,133.27,99.62c0,0-2.48,2.54-11.81-3.46s-15.42.54-15.42.54Z"/><path class="cls-27" d="M13.12,45.62s5.67,6,13-1.91c0,0,1.49,10-6,10S9.46,45.75,13.12,45.62Z"/><g class="cls-33"><path class="cls-34" d="M473.81,324.21V230.73c3.33-5,2.33-19.17,0-23.66V197c0-15.18-31-30.81-33.78-32.18s-4.71-1.36-7.82,0l-1.1.49L428,162.91c8-10.45,13.47-30.46,7.52-57.36-7.23-32.68-38.57-35.48-59.71-33.79-24.69-34.13-69.28-63.32-137.12-58-59.15,4.6-99.25,30-123.11,60.78a42.36,42.36,0,0,0-6-3.15C99.18,67,86.59,74.74,81.34,78.51c-7.82-3-15.26-3.5-20.88-1h-2.6L51.2,71.05C58.59,63.56,63.69,57.43,63,56.74s-7,4.32-14.63,11.6l-7.16-6.9c3.92-4.25,6.3-7.84,5.55-8.6S42.34,54.43,38,58.31l-9.43-9.08h0l-.61-.59a8.37,8.37,0,1,0-16.11-2.38c-.66,1.28.44,3.9,2.93,5.64a8.37,8.37,0,0,0,7.87,1.62l1.7,1.84h0l7.92,8.57c-3.92,4.25-6.3,7.84-5.56,8.6S31,71,35.3,67.24L41,73.44l1,1.11C34.67,82,29.57,88.16,30.25,88.85s6.86-4.24,14.46-11.43l6,6.44c-1.28,5.05-.49,10.39.7,14.62a44.76,44.76,0,0,0,4.19,12.63,19.63,19.63,0,0,0-2.71,7.56,43.82,43.82,0,0,0-1.7,5c-4,.33-8,2.27-11.82,6.74-7.59,9-8.61,19.18-6.9,28.62h0A67.28,67.28,0,0,0,38,175.66h0c3.22,7.72,15.26,33.28,15.26,33.28,1.35-.39,8.78-3.44,10.09-3.89l11.68,24c-5.43,10.51-14.6,30.65-17.43,42.69a146.68,146.68,0,0,0-3.8,38.61c-15.58-1.07-30.46,15.35-22.17,36.29a132,132,0,0,0,13.72,24.68c3.87,6,20.76,30.9,37.52,39.52a67.48,67.48,0,0,0,42.36,122.7,66.19,66.19,0,0,0,38.52-15.36c1.82,1.6,4.13,3.19,6.1,2.93,0,0,1-1.06,2.57-3l0,0,.12,0q1.95.34,4,.61s10.85,12.81,69-5.6q4.23-1.29,8.39-2.76h0a183.23,183.23,0,0,0,63.75-37.58c25.35-22.11,44.54-49.83,54.56-78.81a150.19,150.19,0,0,0,9.79-16.13h1.48l21.53-.11-3.59-7.19a13.32,13.32,0,0,0,9.42,3.82h11.87v2.31l-11.2,19.63,22.93-.12,22.93-.12-2.81-4.81h0l-8.76-15-1.11-1.9H461c7,0,12.8-5.27,12.8-11.7V347.16C477.12,342.05,476.17,329,473.81,324.21Zm-53.51-216a74.13,74.13,0,0,1,2.12,13.32,76.94,76.94,0,0,1-3.44,23c-.6-.64-1.22-1.27-1.87-1.89l.2-.44-3.43-2.42a109.83,109.83,0,0,0-14.65-10.07c-1.29-13.08-6-28.4-14.32-43.57a59.42,59.42,0,0,1,11.41,1.27C404.83,89.57,415.69,94.16,420.3,108.24Zm-127,332.69c1.46-.2,2.92-.42,4.41-.68q-2.78,2.56-5.65,5C292.46,443.78,292.87,442.35,293.26,440.93Zm-101.54,36c.3-1.54.57-3.11.79-4.71a54.19,54.19,0,0,0-4.93-2.56c.08-2.17.05-4.37-.08-6.58a66.81,66.81,0,0,0-1.88-12,145.73,145.73,0,0,0,70.58-10.35,233.58,233.58,0,0,0,32,7.66c-17.43,13.86-37.12,24.07-56.24,29.57C217.69,480.52,203.9,480.25,191.72,476.88Zm204.9-116.23-2.38-11.22q.82-2.36,1.6-4.75c.6,4.14,1.37,8.6,2.3,12.59v5.33a10.68,10.68,0,0,0,.08,1.26Z"/></g></g></g></svg>